# xmcd CD database file
#
# Track frame offsets:
#	150
#	14466
#	27121
#	41102
#	54152
#	66735
#	79732
#	97837
#	111051
#	123532
#	135544
#	149875
#	162370
#	176806
#	188166
#	203783
#	215776
#
# Disc length: 3035 seconds
#
# Revision: 0
# Processed by: cddbd v1.5.1PL0 Copyright (c) Steve Scherf et al.
# Submitted via: CDex 1.51
#
DISCID=000bd911
DTITLE=Fats Waller - Portrait
DYEAR=2002
DGENRE=Jazz
TTITLE0=B flat blues
TTITLE1=I ain`t got nobody ( and nobody cares for me)
TTITLE2=Dinah
TTITLE3=Sweet Sue, just you
TTITLE4=Twelfth street rag
TTITLE5=Why do I lie to myself about you
TTITLE6=Ain`t misbehavin
TTITLE7=Everybody loves my baby
TTITLE8=Handful of keys
TTITLE9=The minor drags
TTITLE10=Do me a favor
TTITLE11=Have a little dream on me
TTITLE12=You`re not the only oyster in the stew
TTITLE13=Mandy
TTITLE14=Let`s pretend there`s a moon
TTITLE15=Honeysuckle rose
TTITLE16=I`ve got my fingers crossed
EXTD=YEAR: 2002
EXTT0=
EXTT1=
EXTT2=
EXTT3=
EXTT4=
EXTT5=
EXTT6=
EXTT7=
EXTT8=
EXTT9=
EXTT10=
EXTT11=
EXTT12=
EXTT13=
EXTT14=
EXTT15=
EXTT16=
PLAYORDER=
